<svg width="300" height="300" viewBox="0 0 300 300" fill="none" xmlns="http://www.w3.org/2000/svg">
<g clip-path="url(#clip0_2_1191)">
<rect width="300" height="300" rx="22" fill="white"/>
<path d="M148.409 221.19H154.604C159.014 221.19 163.167 219.132 165.834 215.62L205.13 163.923L244.426 215.62C247.093 219.127 251.246 221.19 255.656 221.19H261.851L211.719 155.25L259.604 92.25H253.409C248.999 92.25 244.846 94.308 242.179 97.8202L205.125 146.572L168.065 97.815C165.398 94.308 161.245 92.25 156.835 92.25H150.64L198.526 155.25L148.409 221.19Z" fill="#212121"/>
<path d="M150 160.5V144.75C150 109.706 118.789 81.9548 82.6477 87.777C54.513 92.3078 34.5 117.749 34.5 146.241V150V160.5V161.246C34.5 195.649 59.5792 223.122 91.557 223.5C118.29 223.815 140.849 205.944 147.769 181.505H142.372C139.117 181.505 136.166 183.369 134.754 186.298C125.624 205.172 104.362 217.074 81.057 211.719C59.574 206.779 45 186.65 45 164.611V160.5H150ZM45 148.477C45 123.76 59.721 103.553 81.351 98.718C112.189 91.83 139.5 115.098 139.5 144.75V150H45V148.477Z" fill="#212121"/>
</g>
<defs>
<clipPath id="clip0_2_1191">
<rect width="300" height="300" rx="22" fill="white"/>
</clipPath>
</defs>
</svg>
