<?xml version="1.0" encoding="UTF-8" standalone="no"?>
<!DOCTYPE svg PUBLIC "-//W3C//DTD SVG 1.1//EN" "http://www.w3.org/Graphics/SVG/1.1/DTD/svg11.dtd">
<svg width="100%" height="100%" viewBox="0 0 2500 1533" version="1.1" xmlns="http://www.w3.org/2000/svg" xmlns:xlink="http://www.w3.org/1999/xlink" xml:space="preserve" xmlns:serif="http://www.serif.com/" style="fill-rule:evenodd;clip-rule:evenodd;stroke-linejoin:round;stroke-miterlimit:2;">
    <g>
        <path d="M1235.89,1528.58C1227.43,1528.58 1219.53,1526.32 1212.19,1522.37L1137.15,1477.8C1125.86,1471.59 1131.51,1469.33 1134.89,1468.2C1150.13,1463.13 1152.95,1461.99 1168.75,1452.97C1170.44,1451.84 1172.7,1452.4 1174.39,1453.53L1231.95,1487.95C1234.2,1489.08 1237.02,1489.08 1238.71,1487.95L1463.85,1357.61C1466.11,1356.48 1467.24,1354.22 1467.24,1351.4L1467.24,1091.28C1467.24,1088.45 1466.11,1086.2 1463.85,1085.07L1238.71,955.293C1236.46,954.161 1233.63,954.161 1231.95,955.293L1006.81,1085.07C1004.55,1086.2 1003.42,1089.02 1003.42,1091.28L1003.42,1351.4C1003.42,1353.66 1004.55,1356.48 1006.81,1357.61L1068.31,1393.15C1101.6,1410.08 1122.48,1390.33 1122.48,1370.59L1122.48,1113.85C1122.48,1110.46 1125.3,1107.08 1129.25,1107.08L1158.03,1107.08C1161.41,1107.08 1164.8,1109.9 1164.8,1113.85L1164.8,1370.59C1164.8,1415.16 1140.53,1441.12 1098.21,1441.12C1085.24,1441.12 1075.08,1441.12 1046.3,1427.01L987.056,1393.15C972.385,1384.69 963.358,1368.89 963.358,1351.96L963.358,1091.84C963.358,1074.92 972.385,1059.11 987.056,1050.65L1212.19,920.308C1226.3,912.408 1245.49,912.408 1259.59,920.308L1484.73,1050.65C1499.4,1059.11 1508.43,1074.92 1508.43,1091.84L1508.43,1351.96C1508.43,1368.89 1499.4,1384.69 1484.73,1393.15L1259.59,1523.5C1252.26,1526.89 1243.8,1528.58 1235.89,1528.58ZM1305.3,1349.71C1206.55,1349.71 1186.24,1304.57 1186.24,1266.2C1186.24,1262.81 1189.06,1259.43 1193.01,1259.43L1222.35,1259.43C1225.74,1259.43 1228.56,1261.68 1228.56,1265.07C1233.07,1294.98 1246.05,1309.65 1305.86,1309.65C1353.26,1309.65 1373.58,1298.92 1373.58,1273.53C1373.58,1258.86 1367.93,1248.14 1294.01,1240.81C1232.51,1234.6 1194.14,1221.06 1194.14,1171.97C1194.14,1126.26 1232.51,1099.18 1296.84,1099.18C1369.06,1099.18 1404.61,1124.01 1409.12,1178.17C1409.12,1179.87 1408.56,1181.56 1407.43,1183.25C1406.3,1184.38 1404.61,1185.51 1402.91,1185.51L1373.57,1185.51C1370.75,1185.51 1367.93,1183.25 1367.37,1180.43C1360.6,1149.4 1343.1,1139.24 1296.84,1139.24C1244.92,1139.24 1238.71,1157.3 1238.71,1170.84C1238.71,1187.2 1246.05,1192.28 1316.02,1201.31C1385.42,1210.34 1418.15,1223.31 1418.15,1271.84C1417.59,1321.5 1376.96,1349.71 1305.3,1349.71Z" style="fill:rgb(83,158,67);fill-rule:nonzero;"/>
        <path d="M537.341,511.221C537.341,501.066 531.697,491.468 522.67,486.391L283.424,348.714C279.469,346.453 274.958,345.325 270.447,344.759L268.187,344.759C263.676,344.759 259.16,346.453 255.21,348.714L15.964,486.391C6.932,491.468 1.293,501.062 1.293,511.221L1.86,881.372C1.86,886.45 4.682,891.527 9.193,893.788C13.709,896.61 19.348,896.61 23.302,893.788L165.495,812.534C174.522,807.456 180.166,797.863 180.166,787.708L180.166,614.479C180.166,604.324 185.805,594.731 194.837,589.653L255.21,554.668C259.726,551.846 264.803,550.713 269.881,550.713C274.958,550.713 280.036,551.846 283.99,554.668L344.363,589.653C353.395,594.731 359.034,604.319 359.034,614.479L359.034,787.708C359.034,797.863 364.678,807.456 373.705,812.534L515.898,893.788C520.414,896.61 526.053,896.61 530.569,893.788C535.085,891.527 537.907,886.45 537.907,881.372L537.341,511.221ZM1687.3,1.694C1682.79,-0.566 1677.15,-0.566 1673.19,1.694C1668.68,4.516 1665.86,9.027 1665.86,14.105L1665.86,380.877C1665.86,384.261 1664.17,387.644 1660.78,389.904C1657.4,391.594 1654.01,391.594 1650.63,389.904L1590.81,355.485C1581.9,350.412 1570.94,350.412 1562.03,355.485L1322.79,493.729C1313.76,498.806 1308.12,508.399 1308.12,518.554L1308.12,794.475C1308.12,804.63 1313.76,814.228 1322.79,819.306L1562.03,957.549C1570.94,962.622 1581.9,962.622 1590.81,957.549L1830.06,819.306C1839.09,814.228 1844.73,804.635 1844.73,794.475L1844.73,106.646C1844.73,95.925 1839.09,86.336 1830.06,81.254L1687.31,1.694L1687.3,1.694ZM1665.3,703.632C1665.3,706.454 1664.17,708.71 1661.91,709.838L1580.09,757.234C1577.78,758.362 1575.07,758.362 1572.76,757.234L1490.94,709.838C1488.68,708.71 1487.55,705.888 1487.55,703.632L1487.55,608.835C1487.55,606.013 1488.68,603.758 1490.94,602.63L1572.76,555.229C1575.07,554.1 1577.78,554.1 1580.09,555.229L1661.91,602.63C1664.17,603.753 1665.3,606.58 1665.3,608.835L1665.3,703.632ZM2483.47,606.58C2492.5,601.502 2497.58,591.909 2497.58,581.749L2497.58,514.605C2497.58,504.45 2491.93,494.856 2483.47,489.779L2245.92,352.102C2237.01,347.03 2226.05,347.03 2217.14,352.102L1977.9,490.34C1968.87,495.418 1963.23,505.011 1963.23,515.171L1963.23,791.091C1963.23,801.246 1968.87,810.84 1977.9,815.917L2215.45,951.339C2224.48,956.416 2235.2,956.416 2243.66,951.339L2387.55,871.222C2392.06,868.962 2394.88,863.885 2394.88,858.807C2394.88,853.73 2392.06,848.652 2387.55,846.392L2147.17,708.148C2142.66,705.331 2139.84,700.815 2139.84,695.738L2139.84,609.407C2139.84,604.329 2142.66,599.252 2147.17,596.991L2222.22,554.106C2226.7,551.29 2232.41,551.29 2236.89,554.106L2311.93,596.991C2316.45,599.813 2319.27,604.324 2319.27,609.407L2319.27,677.117C2319.27,682.195 2322.09,687.272 2326.61,689.528C2331.12,692.35 2336.76,692.35 2341.28,689.528L2483.47,606.58Z" style="fill:rgb(64,65,55);fill-rule:nonzero;"/>
        <path d="M2227.86,593.603C2229.57,592.478 2231.8,592.478 2233.5,593.603L2279.21,620.123C2280.9,621.246 2282.03,622.94 2282.03,625.2L2282.03,678.24C2282.03,680.496 2280.9,682.19 2279.21,683.318L2233.5,709.838C2231.8,710.962 2229.57,710.962 2227.86,709.838L2182.16,683.318C2180.46,682.19 2179.34,680.496 2179.34,678.24L2179.34,625.2C2179.34,622.94 2180.46,621.246 2182.16,620.123L2227.86,593.603Z" style="fill:rgb(83,158,67);fill-rule:nonzero;"/>
        <g transform="matrix(1,0,0,1,654.542,344.198)">
            <path id="a" d="M282.858,9.032C273.948,3.96 262.991,3.96 254.082,9.032L16.531,146.138C7.499,151.215 2.421,160.809 2.421,170.964L2.421,445.761C2.421,455.916 8.065,465.51 16.531,470.587L254.082,607.703C262.991,612.774 273.948,612.774 282.858,607.703L520.414,470.587C529.441,465.51 534.524,455.916 534.524,445.761L534.524,170.969C534.524,160.814 528.875,151.22 520.414,146.143L282.858,9.032Z" style="fill:url(#_Linear1);fill-rule:nonzero;"/>
            <g>
                <path d="M253.516,9.032L15.403,146.138C6.366,151.22 0.166,160.819 0.166,170.973L0.166,445.771C0.166,452.543 2.987,458.748 7.499,463.825L274.958,5.644C268.187,4.516 260.287,5.077 253.516,9.027L253.516,9.032ZM276.652,610.529C278.908,609.963 281.168,608.835 283.424,607.708L521.542,470.592C530.574,465.514 536.213,455.921 536.213,445.766L536.213,170.969C536.213,163.636 532.825,156.298 527.747,151.22L276.657,610.529L276.652,610.529Z" style="fill:none;fill-rule:nonzero;"/>
                <path d="M520.976,146.143L282.296,9.032C279.951,7.848 277.493,6.902 274.958,6.21L8.423,463.28C10.638,465.985 13.156,468.524 16.15,470.354L254.082,608.279C260.854,612.228 268.753,613.356 276.086,611.096L527.186,151.791C525.492,149.536 523.231,147.837 520.976,146.148L520.976,146.143Z" style="fill:url(#_Linear2);fill-rule:nonzero;"/>
            </g>
            <g>
                <path d="M536.213,445.766L536.213,170.969C536.213,160.814 530.008,151.22 520.98,146.143L282.286,9.032C279.528,7.328 276.463,6.179 273.264,5.649L534.514,451.976C535.642,450.282 536.208,448.027 536.208,445.771L536.213,445.766ZM15.398,146.143C6.376,151.22 0.166,160.819 0.166,170.973L0.166,445.771C0.166,455.926 6.937,465.519 15.398,470.597L254.082,607.712C259.726,611.096 265.931,612.228 272.703,611.096L17.092,145.576L15.403,146.143L15.398,146.143Z" style="fill:none;fill-rule:nonzero;"/>
                <g transform="matrix(1,0,0,1,0,-45.1405)">
                    <path d="M521.03,515.37C527.802,511.421 532.564,504.064 534.053,496.216L273.826,50.784C267.054,49.657 259.716,50.218 253.516,54.168L16.759,191.147L272.297,657.1C276.015,656.492 279.625,655.352 283.019,653.717L521.025,515.375L521.03,515.37Z" style="fill:url(#_Linear3);"/>
                </g>
            </g>
        </g>
    </g>
    <defs>
        <linearGradient id="_Linear1" x1="0" y1="0" x2="1" y2="0" gradientUnits="userSpaceOnUse" gradientTransform="matrix(-214.783,438.145,-438.145,-214.783,365.251,111.248)"><stop offset="0" style="stop-color:rgb(65,135,63);stop-opacity:1"/><stop offset="0.33" style="stop-color:rgb(65,139,61);stop-opacity:1"/><stop offset="0.64" style="stop-color:rgb(65,150,55);stop-opacity:1"/><stop offset="0.93" style="stop-color:rgb(63,169,45);stop-opacity:1"/><stop offset="1" style="stop-color:rgb(63,174,42);stop-opacity:1"/></linearGradient>
        <linearGradient id="_Linear2" x1="0" y1="0" x2="1" y2="0" gradientUnits="userSpaceOnUse" gradientTransform="matrix(602.671,-445.287,445.287,602.671,232.404,340.556)"><stop offset="0" style="stop-color:rgb(65,135,63);stop-opacity:1"/><stop offset="0.14" style="stop-color:rgb(65,135,63);stop-opacity:1"/><stop offset="0.4" style="stop-color:rgb(84,160,68);stop-opacity:1"/><stop offset="0.71" style="stop-color:rgb(102,184,72);stop-opacity:1"/><stop offset="0.91" style="stop-color:rgb(108,192,74);stop-opacity:1"/><stop offset="1" style="stop-color:rgb(108,192,74);stop-opacity:1"/></linearGradient>
        <linearGradient id="_Linear3" x1="0" y1="0" x2="1" y2="0" gradientUnits="userSpaceOnUse" gradientTransform="matrix(549.692,0,0,549.692,-6.25868,353.516)"><stop offset="0" style="stop-color:rgb(108,192,74);stop-opacity:1"/><stop offset="0.09" style="stop-color:rgb(108,192,74);stop-opacity:1"/><stop offset="0.29" style="stop-color:rgb(102,184,72);stop-opacity:1"/><stop offset="0.6" style="stop-color:rgb(84,160,68);stop-opacity:1"/><stop offset="0.86" style="stop-color:rgb(65,135,63);stop-opacity:1"/><stop offset="1" style="stop-color:rgb(65,135,63);stop-opacity:1"/></linearGradient>
    </defs>
</svg>
