<?xml version="1.0" encoding="UTF-8" standalone="no"?>
<!DOCTYPE svg PUBLIC "-//W3C//DTD SVG 1.1//EN" "http://www.w3.org/Graphics/SVG/1.1/DTD/svg11.dtd">
<svg width="100%" height="100%" viewBox="0 0 800 800" version="1.1" xmlns="http://www.w3.org/2000/svg" xmlns:xlink="http://www.w3.org/1999/xlink" xml:space="preserve" xmlns:serif="http://www.serif.com/" style="fill-rule:evenodd;clip-rule:evenodd;stroke-linejoin:round;stroke-miterlimit:2;">
    <g id="XMLID_818_">
        <path id="XMLID_819_" d="M771.709,484.928C777.397,458.915 780.424,431.912 780.424,404.2C780.424,196.421 611.981,27.976 404.195,27.976C382.259,27.976 360.765,29.872 339.853,33.48C306.229,12.296 266.448,0 223.776,0C103.275,0 5.592,97.693 5.592,218.176C5.592,258.453 16.549,296.149 35.581,328.536C30.592,352.979 27.971,378.277 27.971,404.197C27.971,611.976 196.411,780.421 404.195,780.421C427.731,780.421 450.752,778.243 473.085,774.109C503.8,790.616 538.92,800 576.227,800C696.731,800 794.408,702.317 794.408,581.824C794.408,547.005 786.213,514.125 771.709,484.928ZM597.152,583.995C579.747,608.624 554.032,628.141 520.715,641.992C487.72,655.707 448.168,662.661 403.147,662.661C349.109,662.661 303.805,653.157 268.445,634.4C243.168,620.744 222.323,602.251 206.501,579.432C190.52,556.379 182.413,533.504 182.413,511.448C182.413,497.661 187.693,485.709 198.109,475.928C208.416,466.232 221.624,461.32 237.373,461.32C250.301,461.32 261.451,465.203 270.517,472.861C279.176,480.2 286.608,491.059 292.579,505.083C299.245,520.352 306.515,533.245 314.192,543.4C321.571,553.168 332.187,561.379 345.744,567.787C359.384,574.245 377.771,577.517 400.387,577.517C431.488,577.517 456.989,570.877 476.171,557.779C494.904,544.987 504.013,529.632 504.013,510.835C504.013,495.981 499.259,484.309 489.483,475.149C479.243,465.573 465.739,458.12 449.336,453.008C432.237,447.677 409.024,441.928 380.312,435.917C341.416,427.587 308.352,417.704 282.019,406.533C281.917,406.493 281.813,406.451 281.712,406.405C254.733,394.931 232.989,379.019 217.083,359.109C200.925,338.891 192.739,313.525 192.739,283.709C192.739,255.288 201.333,229.669 218.285,207.571C235.109,185.627 259.68,168.573 291.312,156.872C322.536,145.325 359.677,139.475 401.701,139.475C435.301,139.475 464.843,143.355 489.499,151.021C514.296,158.744 535.203,169.173 551.629,182.005C568.176,194.933 580.483,208.765 588.213,223.131C596.021,237.64 599.979,252.08 599.979,266.048C599.979,279.491 594.787,291.707 584.547,302.355C574.245,313.064 561.245,318.501 545.907,318.501C531.973,318.501 521.069,315.101 513.501,308.397C506.459,302.173 499.157,292.469 491.048,278.507C481.667,260.683 470.315,246.632 457.288,236.731C444.648,227.115 423.512,222.232 394.475,222.232C367.507,222.232 345.573,227.645 329.288,238.323C313.595,248.611 305.971,260.408 305.971,274.384C305.971,282.957 308.424,290.12 313.472,296.285C318.819,302.816 326.36,308.552 335.893,313.32C345.781,318.291 355.971,322.24 366.179,325.059C376.635,327.96 394.179,332.259 418.237,337.816C443.587,343.259 467.195,349.253 488.685,355.669C493.003,356.957 497.269,358.261 501.408,359.584C526.461,367.603 548.112,377.493 565.768,388.976C583.789,400.712 598.059,415.784 608.184,433.776C618.336,451.832 623.48,474.128 623.48,500.027C623.475,531.027 614.616,559.272 597.152,583.995Z" style="fill:white;fill-rule:nonzero;"/>
    </g>
</svg>
